# xmcd
#
# Track frame offsets:
#   150
#   17498
#   40328
#   64423
#   81549
#   109008
#   130353
#   148836
#   170200
#   189345
#   212047
#   227154
#   251791
#   271630
#
# Disc length: 4043 seconds
#
# Revision: 0
# Processed by: cddbd v1.5.2PL0 Copyright (c) Steve Scherf et al.
# Submitted via: GXTranscoder 2.0.1939
#
DISCID=d20fc90e
DTITLE=gdfh - bncfg
DYEAR=1900
DGENRE=bncfgh
TTITLE0=bhtzh
TTITLE1=gzgzgk
TTITLE2=tzu7
TTITLE3=u76riuf
TTITLE4=iu7i
TTITLE5=i78i
TTITLE6=i5
TTITLE7=i57578
TTITLE8=u67u54
TTITLE9=u6745
TTITLE10=u67u4
TTITLE11=uu
TTITLE12=4u65u
TTITLE13=u5
EXTD=
EXTT0=
EXTT1=
EXTT2=
EXTT3=
EXTT4=
EXTT5=
EXTT6=
EXTT7=
EXTT8=
EXTT9=
EXTT10=
EXTT11=
EXTT12=
EXTT13=
PLAYORDER=
